<svg width="512" height="512" viewBox="0 0 512 512" fill="none" xmlns="http://www.w3.org/2000/svg">
<rect width="512" height="512" rx="128" fill="white"/>
<path d="M412.995 170.672C412.995 170.936 412.995 171.266 412.928 171.464C412.59 174.036 412.59 176.609 412.793 179.247C412.928 179.907 413.063 180.566 413.603 181.094C414.479 182.084 415.828 181.886 416.368 180.698C416.638 180.105 416.638 179.511 416.503 178.917C415.828 176.411 415.694 173.772 415.626 171.2C415.626 171.068 415.626 170.87 415.626 170.672C416.368 170.606 417.043 170.54 417.65 170.54C418.123 170.474 418.527 170.408 418.865 170.21C419.876 169.683 419.876 168.561 418.797 168.034C418.392 167.836 417.853 167.77 417.38 167.77C415.694 167.836 414.007 167.836 412.32 167.836C411.714 167.836 411.106 167.902 410.499 167.968C410.161 168.034 409.757 168.034 409.487 168.232C409.015 168.429 408.745 168.759 408.745 169.221C408.812 169.683 409.015 169.947 409.487 170.144C409.757 170.342 410.094 170.408 410.431 170.408C411.241 170.474 412.118 170.606 412.995 170.672ZM431.548 173.706C431.548 173.772 431.615 173.838 431.615 173.838C431.885 175.619 432.155 177.334 432.357 179.049C432.425 179.643 432.492 180.171 432.897 180.632C433.774 181.754 435.123 181.622 435.73 180.435C436 179.841 436.068 179.247 435.933 178.588C435.528 176.609 435.325 174.63 434.921 172.717C434.651 171.53 434.314 170.408 433.976 169.353C433.774 168.693 433.302 168.232 432.492 168.166C431.683 168.034 431.075 168.429 430.738 169.023C430.333 169.551 429.996 170.078 429.726 170.672C429.254 171.728 428.849 172.783 428.31 173.772C428.242 174.036 428.174 174.234 428.04 174.432C427.972 174.3 427.905 174.234 427.905 174.234C427.027 172.585 426.218 170.936 425.341 169.353C425.206 169.221 425.138 169.089 425.071 168.957C424.666 168.363 424.194 168.034 423.452 168.034C422.777 168.1 422.237 168.495 421.901 169.089C421.765 169.353 421.765 169.551 421.698 169.815C421.428 171.925 421.091 174.036 420.821 176.147C420.686 177.334 420.618 178.522 420.618 179.709C420.551 179.973 420.618 180.303 420.753 180.566C420.888 181.094 421.293 181.424 421.833 181.49C422.507 181.556 422.98 181.358 423.182 180.83C423.384 180.435 423.452 180.105 423.519 179.775C423.789 178.588 423.992 177.466 424.194 176.345C424.329 175.685 424.396 175.158 424.599 174.432C424.734 174.696 424.868 174.894 425.004 175.092C425.611 175.883 426.218 176.675 426.96 177.334C427.702 177.862 428.31 177.796 428.916 177.202C429.052 177.07 429.119 177.005 429.254 176.873C429.861 175.949 430.603 175.026 431.21 174.102C431.345 173.97 431.413 173.838 431.548 173.706Z" fill="black"/>
<path d="M276.102 171.969C275.633 173.222 275.543 174.125 275.76 174.876C275.999 175.897 276.62 176.231 277.462 175.971C285.386 174.055 302.762 179.493 309.196 181.009C310.713 181.327 311.947 179.412 310.912 177.695C309.401 176.033 292.032 168.914 285.405 168.526C282.808 168.383 278.164 167.731 276.102 171.969Z" fill="black"/>
<path d="M344.011 148.925C344.856 149.401 345.328 149.856 345.561 150.364C345.908 151.03 345.725 151.491 345.142 151.726C339.904 154.226 332.934 164.987 330.12 168.698C329.438 169.552 327.865 169.056 327.627 167.652C327.676 166.064 333.855 154.386 337.303 151.206C338.658 149.964 340.897 147.527 344.011 148.925Z" fill="black"/>
<path d="M302.298 143.628C303.312 142.88 304.367 142.618 304.905 143.104C312.808 149.712 316.999 160.177 319.594 169.757C319.692 169.98 319.698 170.301 319.62 170.635C319.587 170.92 319.374 171.222 319.035 171.456C318.673 171.713 318.361 171.792 318.215 171.57C314.751 166.963 294.968 149.041 302.298 143.628Z" fill="black"/>
<path d="M134.942 258.199C136.836 256.821 138.896 255.673 141.075 254.782C143.354 254.145 145.784 254.25 147.997 255.083C150.21 255.917 152.085 257.431 153.339 259.399C154.461 261.361 154.9 263.627 154.59 265.855C154.28 268.082 153.239 270.151 151.622 271.75C150.369 273.046 148.946 274.175 147.391 275.108C140.462 279.485 133.47 283.622 126.48 287.999C125.049 289.095 123.532 290.077 121.942 290.937C119.523 292.117 116.759 292.432 114.127 291.83C111.496 291.228 109.162 289.746 107.53 287.64C106.31 286.148 105.281 284.517 104.464 282.783C97.8413 269.172 90.973 255.621 84.5953 241.771C81.6517 235.775 79.2601 228.879 76.9298 222.224C75.9216 220.29 75.7247 218.049 76.3811 215.975C77.0375 213.901 78.4953 212.16 80.4445 211.121C82.3937 210.082 84.6804 209.828 86.8184 210.413C88.9563 210.997 90.7769 212.373 91.8928 214.25C95.3228 218.706 98.3591 223.44 100.969 228.4C107.592 240.392 113.908 252.383 120.286 264.015C120.657 264.658 121.067 265.279 121.512 265.874C126.313 263.901 130.827 261.321 134.942 258.199Z" fill="black"/>
<path d="M203.42 254.016C188.273 271.344 162.885 266.967 150.13 244.662C141.054 228.833 139.459 202.691 159.206 186.202C163.423 182.75 168.465 180.399 173.862 179.367C180.48 178.439 187.228 179.581 193.143 182.628C199.057 185.676 203.835 190.473 206.793 196.335C217.586 215.522 216.053 239.985 203.42 254.016ZM197.288 213.603C195.679 208.889 192.45 204.863 188.15 202.211C185.717 200.515 182.761 199.691 179.779 199.877C176.797 200.062 173.971 201.247 171.777 203.23C163.008 210.845 161.168 228.893 167.546 239.626C168.359 241.376 169.552 242.931 171.044 244.183C172.536 245.435 174.29 246.353 176.183 246.872C178.075 247.392 180.061 247.501 182.001 247.192C183.942 246.882 185.789 246.162 187.415 245.082C192.169 241.478 195.656 236.516 197.392 230.886C199.129 225.255 199.028 219.235 197.104 213.664L197.288 213.603Z" fill="black"/>
<path d="M265.234 221.158C263.683 221.484 262.081 221.504 260.523 221.215C258.964 220.927 257.48 220.337 256.158 219.48C255.002 218.833 254.006 217.944 253.243 216.875C252.48 215.807 251.969 214.587 251.746 213.303C251.523 212.018 251.595 210.702 251.954 209.448C252.314 208.193 252.954 207.032 253.828 206.049C255.35 204.072 257.511 202.656 259.96 202.032C266.355 200.217 272.937 199.111 279.584 198.734C281.045 198.568 282.524 198.689 283.936 199.089C285.348 199.49 286.664 200.163 287.806 201.068C288.949 201.972 289.895 203.091 290.589 204.359C291.283 205.626 291.711 207.016 291.849 208.447C293.765 215.478 293.975 222.849 292.462 229.973C286.943 252.997 267.932 260.911 246.592 253.536C240.601 251.564 235.349 247.89 231.506 242.984C226.381 237.074 222.747 230.071 220.897 222.538C219.398 215.829 219.562 208.867 221.376 202.234C223.189 195.6 226.6 189.486 231.322 184.404C235.803 178.879 241.62 174.532 248.248 171.752C252.435 169.495 257.336 168.854 261.984 169.953C263.038 170.239 263.995 170.795 264.756 171.564C265.517 172.333 266.053 173.286 266.31 174.326C266.566 175.366 266.534 176.454 266.215 177.478C265.896 178.501 265.304 179.423 264.498 180.146C262.967 181.502 261.303 182.707 259.531 183.744C254.079 187.139 249.335 191.513 245.549 196.635C243.068 199.95 241.359 203.756 240.543 207.785C239.727 211.815 239.824 215.97 240.827 219.96C242.218 225.399 245.304 230.281 249.658 233.93C263.149 245.922 280.688 234.349 277.622 217.981C273.145 219.06 269.22 220.199 265.234 221.158Z" fill="black"/>
<path d="M347.654 254.975C327.724 266.967 305.034 254.975 300.067 229.792C296.449 211.805 303.317 186.622 327.356 177.028C332.471 175.031 338.019 174.33 343.484 174.99C350.051 176.165 356.076 179.326 360.707 184.027C365.339 188.728 368.345 194.732 369.301 201.192C373.349 222.597 364.15 245.442 347.654 254.975ZM354.584 214.623C354.578 209.642 352.776 204.822 349.494 201.012C347.74 198.656 345.204 196.967 342.319 196.234C339.433 195.502 336.378 195.77 333.672 196.995C322.879 201.551 315.275 218.1 318.035 230.272C318.246 232.182 318.88 234.024 319.895 235.67C320.91 237.315 322.28 238.724 323.91 239.797C325.539 240.871 327.389 241.583 329.329 241.885C331.27 242.187 333.255 242.07 335.144 241.544C340.849 239.596 345.789 235.954 349.274 231.128C352.759 226.301 354.616 220.531 354.584 214.623Z" fill="black"/>
<path d="M389.457 260.012C389.156 262.207 387.976 264.194 386.176 265.538C384.376 266.882 382.104 267.471 379.86 267.177C377.615 266.883 375.582 265.729 374.208 263.969C372.833 262.21 372.231 259.988 372.532 257.794C372.832 255.599 374.013 253.611 375.812 252.268C377.612 250.924 379.884 250.334 382.129 250.629C384.373 250.923 386.406 252.076 387.781 253.836C389.155 255.596 389.758 257.818 389.457 260.012ZM384.121 179.127C385.288 177.386 386.999 176.059 388.999 175.346C391 174.633 393.182 174.571 395.221 175.17C397.294 175.677 399.126 176.865 400.41 178.535C401.694 180.205 402.351 182.256 402.274 184.344C402.003 187.693 401.491 191.019 400.741 194.297C398.717 205.389 396.754 216.482 394.608 227.454C393.627 231.831 392.339 236.029 390.929 240.465C390.438 241.852 389.618 243.106 388.537 244.123C387.865 244.888 387.007 245.475 386.041 245.829C385.075 246.184 384.034 246.295 383.013 246.151C381.992 246.008 381.024 245.615 380.2 245.009C379.375 244.403 378.72 243.603 378.296 242.684C377.567 241.035 377.171 239.263 377.131 237.468C377.131 230.033 377.131 222.538 377.621 215.043C378.455 204.347 380.095 193.725 382.527 183.264C382.814 181.863 383.353 180.523 384.121 179.307V179.127Z" fill="black"/>
<path fill-rule="evenodd" clip-rule="evenodd" d="M109.033 308.194C108.309 309.774 108.111 311.536 108.464 313.232C108.7 315.467 109.217 317.665 110.004 319.777C110.986 322.363 112.085 324.92 113.441 328.071C113.752 328.797 114.078 329.554 114.419 330.35C116.247 334.62 118.54 340.076 121.6 347.973C122.466 350.217 123.234 352.478 124.009 354.756C124.322 355.676 124.635 356.599 124.957 357.524C126.109 360.813 128.09 363.769 130.717 366.111C131.833 367.398 133.313 368.336 134.972 368.805C136.663 369.283 138.462 369.253 140.136 368.718C141.809 368.183 143.279 367.167 144.354 365.804C145.409 364.467 146.035 362.857 146.157 361.174C146.841 357.896 146.608 354.497 145.481 351.337C143.691 346.089 141.653 340.835 139.303 335.695L139.292 335.672C135.426 327.631 131.496 319.645 127.379 311.656L127.349 311.6C126.144 309.519 124.578 307.658 122.721 306.102C121.516 304.713 119.853 303.776 118.017 303.453C116.142 303.123 114.208 303.455 112.561 304.391C111.002 305.261 109.767 306.592 109.033 308.194Z" fill="black"/>
<path fill-rule="evenodd" clip-rule="evenodd" d="M168.086 288.393C162.024 286.857 155.692 286.634 149.533 287.737C144.763 288.197 140.071 289.273 136.813 291.404C135.156 292.488 133.816 293.881 133.071 295.651C132.322 297.431 132.226 299.467 132.84 301.735C133.961 305.889 135.417 309.928 136.868 313.955L137.103 314.607L137.109 314.621C141.477 326.318 145.887 337.975 150.337 349.593C150.856 351.423 151.59 353.19 152.524 354.855L152.541 354.886C153.775 356.956 155.358 358.807 157.222 360.361C158.154 361.216 159.307 361.807 160.558 362.072C161.82 362.338 163.133 362.261 164.354 361.848C165.574 361.435 166.655 360.702 167.479 359.729C168.29 358.772 168.821 357.619 169.016 356.391C169.82 353.058 169.562 349.563 168.276 346.377C167.875 345.305 167.561 344.209 167.229 343.055C167.118 342.67 167.006 342.279 166.888 341.88C177.074 337.987 187.913 332.752 191.724 320.574C193.217 316.366 193.341 311.809 192.08 307.528C190.818 303.242 188.229 299.444 184.669 296.655C179.824 292.752 174.164 289.931 168.086 288.393ZM151.282 303.33C151.482 303.273 151.685 303.221 151.887 303.172C158.519 302.153 165.304 303.511 170.993 306.996C173.5 308.701 174.527 310.595 174.704 312.417C174.886 314.294 174.188 316.328 172.786 318.282C170.137 321.975 165.302 324.931 160.936 325.481C157.752 318.313 154.519 310.855 151.282 303.33Z" fill="black"/>
<path d="M208.503 275.272C215.723 272.012 224.666 271.449 231.664 273.741C233.426 274.243 234.955 275.328 235.989 276.812C237.017 278.286 237.491 280.063 237.333 281.84C237.322 282.993 237.033 284.127 236.488 285.151C235.934 286.193 235.131 287.088 234.148 287.763C233.164 288.437 232.029 288.871 230.839 289.026C229.648 289.181 228.437 289.054 227.307 288.654L227.221 288.624L227.14 288.582C226.562 288.286 225.948 288.064 225.313 287.919L225.273 287.91C220.35 286.631 215.706 288.75 214.01 291.352C213.201 292.593 213.101 293.846 213.775 294.986C214.496 296.206 216.266 297.576 219.847 298.552C220.832 298.816 221.841 299.071 222.865 299.331C225.697 300.047 228.64 300.792 231.485 301.824L231.496 301.828C244.624 306.712 249.512 316.827 247.839 326.34C246.183 335.748 238.147 344.309 226.063 346.329C221.666 347.282 217.09 347.096 212.788 345.791C208.475 344.481 204.588 342.091 201.512 338.857L201.431 338.773C200.46 337.554 199.807 336.123 199.518 334.604C199.251 333.234 199.392 331.817 199.922 330.522C200.448 329.234 201.339 328.12 202.488 327.308C203.703 326.387 205.166 325.835 206.698 325.72C208.225 325.605 209.753 325.929 211.094 326.652C212.433 327.285 213.679 328.092 214.797 329.052L214.818 329.069C216.796 330.838 219.189 331.299 221.483 330.872C223.812 330.439 226.001 329.092 227.409 327.305C228.808 325.529 229.37 323.419 228.703 321.371C228.032 319.308 226.016 316.997 221.585 315.065C220.427 314.584 219.226 314.196 217.977 313.819C217.64 313.717 217.298 313.616 216.951 313.513C216.027 313.239 215.077 312.957 214.145 312.645C213.503 312.431 212.867 312.229 212.236 312.028C210.513 311.479 208.833 310.944 207.216 310.227C203.696 309.055 200.656 306.806 198.547 303.811C196.429 300.804 195.363 297.209 195.508 293.562C195.52 284.673 201.245 278.55 208.503 275.272Z" fill="black"/>
<path d="M300.033 274.325C298.633 273.656 297.085 273.339 295.528 273.401C293.972 273.464 292.456 273.904 291.117 274.683C289.786 275.457 288.672 276.54 287.874 277.836C287.142 278.928 286.636 280.149 286.383 281.431C286.131 282.712 286.137 284.029 286.401 285.307C286.662 286.95 286.951 288.547 287.236 290.122C287.709 292.729 288.168 295.277 288.472 297.876L288.483 297.941C289.174 302.016 289.535 306.137 289.568 310.267L289.571 310.325C289.807 314.785 288.253 319.158 285.242 322.517L285.194 322.576C284.214 323.804 282.904 324.741 281.41 325.282C279.917 325.824 278.299 325.948 276.737 325.642C275.175 325.335 273.731 324.61 272.567 323.547C271.403 322.484 270.563 321.121 270.144 319.619C269.249 316.453 268.731 313.196 268.599 309.914L270.128 286.121C270.15 285.81 270.176 285.492 270.202 285.17C270.261 284.447 270.32 283.711 270.345 283.025C270.381 282.015 270.35 280.976 270.109 279.992C269.863 278.987 269.394 278.031 268.563 277.217C267.741 276.411 266.63 275.817 265.232 275.412C262.704 274.697 260.567 274.719 258.786 275.458C257.004 276.197 255.783 277.57 254.919 279.155C254.062 280.726 253.511 282.587 253.094 284.451C252.785 285.834 252.537 287.285 252.301 288.667C252.219 289.144 252.139 289.611 252.058 290.065L252.056 290.079C250.793 297.657 250.417 305.352 250.936 313.014C251.032 317.154 251.915 321.241 253.541 325.066C255.374 330.001 258.695 334.277 263.065 337.329C267.444 340.388 272.669 342.073 278.05 342.162C283.43 342.251 288.712 340.739 293.194 337.828C297.669 334.921 301.138 330.754 303.14 325.879C305.942 319.669 307.257 312.915 306.986 306.133C306.821 301.181 306.545 296.192 306.271 291.227C306.137 288.792 306.002 286.362 305.882 283.947C305.821 281.525 305.005 279.18 303.541 277.225C302.635 275.989 301.43 274.992 300.033 274.325Z" fill="black"/>
<path d="M349.58 311.632C349.438 311.808 349.288 311.991 349.132 312.181C347.993 305.758 346.938 299.338 345.881 292.908C345.502 290.601 345.121 288.284 344.738 285.974L344.695 285.716L344.555 285.493C344.291 285.074 344.265 284.663 344.265 283.787V283.686L344.249 283.585C343.963 281.776 343.126 280.091 341.847 278.753C340.571 277.419 338.915 276.49 337.093 276.087C335.274 275.648 333.362 275.745 331.598 276.365C329.84 276.984 328.307 278.095 327.191 279.561C326.263 280.686 325.502 281.934 324.932 283.267C323.639 286.138 322.334 289.017 321.026 291.904L321.003 291.954C317.737 299.161 314.449 306.416 311.256 313.728L311.246 313.751C309.286 318.493 307.668 323.488 306.056 328.469C305.734 329.463 305.412 330.456 305.088 331.447C304.505 333.019 304.251 334.688 304.338 336.357C304.232 337.851 304.598 339.342 305.387 340.627C306.191 341.938 307.396 342.97 308.832 343.577C310.353 344.23 312.054 344.368 313.665 343.971C315.272 343.574 316.7 342.667 317.723 341.392C319.029 339.821 320.153 338.107 321.069 336.292C323.774 330.882 326.359 325.407 328.932 319.956C329.928 317.847 330.895 315.959 331.995 313.902C332.071 314.156 332.148 314.403 332.228 314.651C333.381 319.616 335.329 324.372 337.997 328.745C338.502 329.671 339.206 330.481 340.059 331.118C340.923 331.763 341.921 332.215 342.982 332.445C344.043 332.675 345.142 332.676 346.204 332.448C347.264 332.221 348.264 331.768 349.128 331.126L350.839 329.874L364.12 318.936L363.335 323.83C362.257 330.556 361.187 337.226 360.05 343.898C359.307 346.855 359.308 349.944 360.053 352.9C360.376 354.564 361.199 356.096 362.417 357.3C363.645 358.514 365.218 359.339 366.931 359.668C368.645 359.997 370.42 359.815 372.026 359.145C373.609 358.485 374.956 357.381 375.897 355.975C378.087 353.318 379.45 350.103 379.824 346.71C380.388 341.919 381.024 337.062 381.662 332.208C382.395 326.612 383.129 321.017 383.749 315.53L383.751 315.513C384.348 309.507 384.636 303.476 384.616 297.441C384.747 295.534 384.261 293.635 383.227 292.011C382.188 290.382 380.651 289.115 378.833 288.39C376.943 287.55 374.826 287.325 372.795 287.75C370.778 288.172 368.952 289.212 367.581 290.718C365.132 292.933 362.834 295.303 360.702 297.814L360.688 297.831C358.361 300.666 356.05 303.557 353.753 306.429C352.357 308.175 350.965 309.917 349.58 311.632Z" fill="black"/>
</svg>
